TITLE ""
FILE "Disc2Track25.mp3" MP3
  TRACK 01 AUDIO
    TITLE "Disc2Track25_01"
    INDEX 01 00:00:00
  TRACK 02 AUDIO
    TITLE "Disc2Track25_02"
    INDEX 01 00:00:69
  TRACK 03 AUDIO
    TITLE "Disc2Track25_03"
    INDEX 01 00:04:20
  TRACK 04 AUDIO
    TITLE "Disc2Track25_04"
    INDEX 01 00:05:27
  TRACK 05 AUDIO
    TITLE "Disc2Track25_05"
    INDEX 01 00:08:57
  TRACK 06 AUDIO
    TITLE "Disc2Track25_06"
    INDEX 01 00:09:11
  TRACK 07 AUDIO
    TITLE "Disc2Track25_07"
    INDEX 01 00:10:54
  TRACK 08 AUDIO
    TITLE "Disc2Track25_08"
    INDEX 01 00:13:31
  TRACK 09 AUDIO
    TITLE "Disc2Track25_09"
    INDEX 01 00:14:71
  TRACK 10 AUDIO
    TITLE "Disc2Track25_10"
    INDEX 01 00:18:38
  TRACK 11 AUDIO
    TITLE "Disc2Track25_11"
    INDEX 01 00:18:69
  TRACK 12 AUDIO
    TITLE "Disc2Track25_12"
    INDEX 01 00:20:58
  TRACK 13 AUDIO
    TITLE "Disc2Track25_13"
    INDEX 01 00:22:08
  TRACK 14 AUDIO
    TITLE "Disc2Track25_14"
    INDEX 01 00:23:70
  TRACK 15 AUDIO
    TITLE "Disc2Track25_15"
    INDEX 01 00:27:44
  TRACK 16 AUDIO
    TITLE "Disc2Track25_16"
    INDEX 01 00:28:01
  TRACK 17 AUDIO
    TITLE "Disc2Track25_17"
    INDEX 01 00:29:53
  TRACK 18 AUDIO
    TITLE "Disc2Track25_18"
    INDEX 01 00:32:75
  TRACK 19 AUDIO
    TITLE "Disc2Track25_19"
    INDEX 01 00:34:52
  TRACK 20 AUDIO
    TITLE "Disc2Track25_20"
    INDEX 01 00:38:58
  TRACK 21 AUDIO
    TITLE "Disc2Track25_21"
    INDEX 01 00:39:14
  TRACK 22 AUDIO
    TITLE "Disc2Track25_22"
    INDEX 01 00:40:22
  TRACK 23 AUDIO
    TITLE "Disc2Track25_23"
    INDEX 01 00:45:58
  TRACK 24 AUDIO
    TITLE "Disc2Track25_24"
    INDEX 01 00:46:65
  TRACK 25 AUDIO
    TITLE "Disc2Track25_25"
    INDEX 01 00:50:63
  TRACK 26 AUDIO
    TITLE "Disc2Track25_26"
    INDEX 01 00:51:21
  TRACK 27 AUDIO
    TITLE "Disc2Track25_27"
    INDEX 01 00:52:44
  TRACK 28 AUDIO
    TITLE "Disc2Track25_28"
    INDEX 01 00:53:65
  TRACK 29 AUDIO
    TITLE "Disc2Track25_29"
    INDEX 01 00:55:11
  TRACK 30 AUDIO
    TITLE "Disc2Track25_30"
    INDEX 01 00:58:39
  TRACK 31 AUDIO
    TITLE "Disc2Track25_31"
    INDEX 01 00:58:70
  TRACK 32 AUDIO
    TITLE "Disc2Track25_32"
    INDEX 01 01:00:48
  TRACK 33 AUDIO
    TITLE "Disc2Track25_33"
    INDEX 01 01:02:47
  TRACK 34 AUDIO
    TITLE "Disc2Track25_34"
    INDEX 01 01:04:26
  TRACK 35 AUDIO
    TITLE "Disc2Track25_35"
    INDEX 01 01:07:44
  TRACK 36 AUDIO
    TITLE "Disc2Track25_36"
    INDEX 01 01:07:75
  TRACK 37 AUDIO
    TITLE "Disc2Track25_37"
    INDEX 01 01:09:11
  TRACK 38 AUDIO
    TITLE "Disc2Track25_38"
    INDEX 01 01:12:27
  TRACK 39 AUDIO
    TITLE "Disc2Track25_39"
    INDEX 01 01:13:37
  TRACK 40 AUDIO
    TITLE "Disc2Track25_40"
    INDEX 01 01:18:26
  TRACK 41 AUDIO
    TITLE "Disc2Track25_41"
    INDEX 01 01:18:63
  TRACK 42 AUDIO
    TITLE "Disc2Track25_42"
    INDEX 01 01:20:07
  TRACK 43 AUDIO
    TITLE "Disc2Track25_43"
    INDEX 01 01:22:02
  TRACK 44 AUDIO
    TITLE "Disc2Track25_44"
    INDEX 01 01:23:23
  TRACK 45 AUDIO
    TITLE "Disc2Track25_45"
    INDEX 01 01:23:63
  TRACK 46 AUDIO
    TITLE "Disc2Track25_46"
    INDEX 01 01:25:07
  TRACK 47 AUDIO
    TITLE "Disc2Track25_47"
    INDEX 01 01:26:14
  TRACK 48 AUDIO
    TITLE "Disc2Track25_48"
    INDEX 01 01:27:35
  TRACK 49 AUDIO
    TITLE "Disc2Track25_49"
    INDEX 01 01:27:64
  TRACK 50 AUDIO
    TITLE "Disc2Track25_50"
    INDEX 01 01:28:70
  TRACK 51 AUDIO
    TITLE "Disc2Track25_51"
    INDEX 01 01:30:66
  TRACK 52 AUDIO
    TITLE "Disc2Track25_52"
    INDEX 01 01:31:72
  TRACK 53 AUDIO
    TITLE "Disc2Track25_53"
    INDEX 01 01:34:51
  TRACK 54 AUDIO
    TITLE "Disc2Track25_54"
    INDEX 01 01:35:13
  TRACK 55 AUDIO
    TITLE "Disc2Track25_55"
    INDEX 01 01:36:38
  TRACK 56 AUDIO
    TITLE "Disc2Track25_56"
    INDEX 01 01:37:55
  TRACK 57 AUDIO
    TITLE "Disc2Track25_57"
    INDEX 01 01:39:09
  TRACK 58 AUDIO
    TITLE "Disc2Track25_58"
    INDEX 01 01:39:40
  TRACK 59 AUDIO
    TITLE "Disc2Track25_59"
    INDEX 01 01:41:37
  TRACK 60 AUDIO
    TITLE "Disc2Track25_60"
    INDEX 01 01:44:18
  TRACK 61 AUDIO
    TITLE "Disc2Track25_61"
    INDEX 01 01:46:15
  TRACK 62 AUDIO
    TITLE "Disc2Track25_62"
    INDEX 01 01:49:52
